<svg width="302.468" height="300" viewBox="0 0 80.028 79.375" xmlns:xlink="http://www.w3.org/1999/xlink" xmlns="http://www.w3.org/2000/svg"><defs><linearGradient x1="0" y1="0" x2="1" y2="0" gradientUnits="userSpaceOnUse" gradientTransform="scale(-19.984 19.984) rotate(-54.421 .948 16.325)" spreadMethod="pad" id="f"><stop style="stop-opacity:1;stop-color:#ff6d35" offset="0"/><stop style="stop-opacity:1;stop-color:#ff6d35" offset=".005"/><stop style="stop-opacity:1;stop-color:#be4136" offset="1"/></linearGradient><linearGradient x1="0" y1="0" x2="1" y2="0" gradientUnits="userSpaceOnUse" gradientTransform="scale(-28.9784 28.9784) rotate(-47.49 1.79 11.874)" spreadMethod="pad" id="g"><stop style="stop-opacity:1;stop-color:#fe7e2f" offset="0"/><stop style="stop-opacity:1;stop-color:#fe7e2f" offset=".055"/><stop style="stop-opacity:1;stop-color:#ff5e3b" offset=".995"/><stop style="stop-opacity:1;stop-color:#ff5e3b" offset=".997"/><stop style="stop-opacity:1;stop-color:#ff5e3b" offset="1"/></linearGradient><linearGradient x1="0" y1="0" x2="1" y2="0" gradientUnits="userSpaceOnUse" gradientTransform="scale(-9.7539 9.7539) rotate(-85.301 -4.78 19.453)" spreadMethod="pad" id="h"><stop style="stop-opacity:1;stop-color:#ff5e3b" offset="0"/><stop style="stop-opacity:1;stop-color:#ff5e3b" offset=".124"/><stop style="stop-opacity:1;stop-color:#ad3a34" offset="1"/></linearGradient><linearGradient x1="0" y1="0" x2="1" y2="0" gradientUnits="userSpaceOnUse" gradientTransform="matrix(-11.4068 4.8717 4.8717 11.4068 250.67 123.22)" spreadMethod="pad" id="i"><stop style="stop-opacity:1;stop-color:#fe9128" offset="0"/><stop style="stop-opacity:1;stop-color:#fe9128" offset=".001"/><stop style="stop-opacity:1;stop-color:#fe9128" offset=".382"/><stop style="stop-opacity:1;stop-color:#ff5e3b" offset=".995"/><stop style="stop-opacity:1;stop-color:#ff5e3b" offset=".997"/><stop style="stop-opacity:1;stop-color:#ff5e3b" offset="1"/></linearGradient><linearGradient x1="0" y1="0" x2="1" y2="0" gradientUnits="userSpaceOnUse" gradientTransform="scale(-28.9784 28.9784) rotate(-47.49 1.79 11.874)" spreadMethod="pad" id="j"><stop style="stop-opacity:1;stop-color:#fe8e37" offset="0"/><stop style="stop-opacity:1;stop-color:#ff7243" offset=".995"/><stop style="stop-opacity:1;stop-color:#ff7243" offset="1"/></linearGradient><linearGradient x1="0" y1="0" x2="1" y2="0" gradientUnits="userSpaceOnUse" gradientTransform="scale(-28.9784 28.9784) rotate(-47.49 1.79 11.874)" spreadMethod="pad" id="n"><stop style="stop-opacity:1;stop-color:#f3782c" offset="0"/><stop style="stop-opacity:1;stop-color:#f46035" offset=".995"/><stop style="stop-opacity:1;stop-color:#f46035" offset="1"/></linearGradient><linearGradient x1="0" y1="0" x2="1" y2="0" gradientUnits="userSpaceOnUse" gradientTransform="scale(-9.7539 9.7539) rotate(-85.301 -4.78 19.453)" spreadMethod="pad" id="o"><stop style="stop-opacity:1;stop-color:#d24327" offset="0"/><stop style="stop-opacity:1;stop-color:#8f2922" offset="1"/></linearGradient><linearGradient x1="0" y1="0" x2="1" y2="0" gradientUnits="userSpaceOnUse" gradientTransform="scale(30.0899 -30.0899) rotate(70.684 10.402 3.232)" spreadMethod="pad" id="a"><stop style="stop-opacity:1;stop-color:#76262c" offset="0"/><stop style="stop-opacity:1;stop-color:#76262c" offset=".383"/><stop style="stop-opacity:1;stop-color:#d3672e" offset="1"/></linearGradient><linearGradient x1="0" y1="0" x2="1" y2="0" gradientUnits="userSpaceOnUse" gradientTransform="scale(-31.5897 31.5897) rotate(10.305 -32.284 -64.709)" spreadMethod="pad" id="b"><stop style="stop-opacity:1;stop-color:#76262c" offset="0"/><stop style="stop-opacity:1;stop-color:#76262c" offset=".383"/><stop style="stop-opacity:1;stop-color:#d3672e" offset="1"/></linearGradient><linearGradient x1="0" y1="0" x2="1" y2="0" gradientUnits="userSpaceOnUse" gradientTransform="scale(16.2403 -16.2403) rotate(-64.054 .246 -19.087)" spreadMethod="pad" id="U"><stop style="stop-opacity:1;stop-color:#fda80d" offset="0"/><stop style="stop-opacity:1;stop-color:#ae1702" offset=".989"/><stop style="stop-opacity:1;stop-color:#ae1702" offset="1"/></linearGradient><linearGradient x1="0" y1="0" x2="1" y2="0" gradientUnits="userSpaceOnUse" gradientTransform="scale(16.2403 -16.2403) rotate(-64.054 .246 -19.087)" spreadMethod="pad" id="X"><stop style="stop-opacity:1;stop-color:#fec011" offset="0"/><stop style="stop-opacity:1;stop-color:#c51d03" offset=".989"/><stop style="stop-opacity:1;stop-color:#c51d03" offset="1"/></linearGradient><linearGradient x1="0" y1="0" x2="1" y2="0" gradientUnits="userSpaceOnUse" gradientTransform="scale(-27.985 27.985) rotate(-72.16 -1.293 10.295)" spreadMethod="pad" id="c"><stop style="stop-opacity:1;stop-color:#fff" offset="0"/><stop style="stop-opacity:1;stop-color:#ffd6a8" offset="1"/></linearGradient><linearGradient x1="0" y1="0" x2="1" y2="0" gradientUnits="userSpaceOnUse" gradientTransform="scale(35.42 -35.42) rotate(34.958 9.946 9.248)" spreadMethod="pad" id="r"><stop style="stop-opacity:1;stop-color:#ff5e3b" offset="0"/><stop style="stop-opacity:1;stop-color:#ff5e3b" offset=".124"/><stop style="stop-opacity:1;stop-color:#ad3a34" offset="1"/></linearGradient><linearGradient x1="0" y1="0" x2="1" y2="0" gradientUnits="userSpaceOnUse" gradientTransform="scale(50.2076 -50.2076) rotate(25.145 8.81 9.76)" spreadMethod="pad" id="s"><stop style="stop-opacity:1;stop-color:#ff5e3b" offset="0"/><stop style="stop-opacity:1;stop-color:#ff5e3b" offset=".124"/><stop style="stop-opacity:1;stop-color:#be4136" offset="1"/></linearGradient><linearGradient x1="0" y1="0" x2="1" y2="0" gradientUnits="userSpaceOnUse" gradientTransform="scale(-27.985 27.985) rotate(-72.16 -1.293 10.295)" spreadMethod="pad" id="aa"><stop style="stop-opacity:1;stop-color:#fff" offset="0"/><stop style="stop-opacity:1;stop-color:#ffddb6" offset="1"/></linearGradient><linearGradient x1="0" y1="0" x2="1" y2="0" gradientUnits="userSpaceOnUse" gradientTransform="scale(60.6432 -60.6432) rotate(87.93 3.905 1.274)" spreadMethod="pad" id="t"><stop style="stop-opacity:1;stop-color:#fe9128" offset="0"/><stop style="stop-opacity:1;stop-color:#fe9128" offset=".001"/><stop style="stop-opacity:1;stop-color:#f3593d" offset=".331"/><stop style="stop-opacity:1;stop-color:#f3593d" offset=".53"/><stop style="stop-opacity:1;stop-color:#f3593d" offset=".539"/><stop style="stop-opacity:1;stop-color:#932f30" offset="1"/></linearGradient><linearGradient x1="0" y1="0" x2="1" y2="0" gradientUnits="userSpaceOnUse" gradientTransform="matrix(0 -7.3535 -7.3535 0 303.198 130.111)" spreadMethod="pad" id="u"><stop style="stop-opacity:1;stop-color:#fe9128" offset="0"/><stop style="stop-opacity:1;stop-color:#fe9128" offset=".001"/><stop style="stop-opacity:1;stop-color:#fe9128" offset=".382"/><stop style="stop-opacity:1;stop-color:#ff5e3b" offset=".995"/><stop style="stop-opacity:1;stop-color:#ff5e3b" offset=".997"/><stop style="stop-opacity:1;stop-color:#ff5e3b" offset="1"/></linearGradient><linearGradient xlink:href="#a" id="Q" gradientUnits="userSpaceOnUse" gradientTransform="scale(30.0899 -30.0899) rotate(70.684 10.402 3.232)" x1="0" y1="0" x2="1" y2="0" spreadMethod="pad"/><linearGradient xlink:href="#b" id="S" gradientUnits="userSpaceOnUse" gradientTransform="scale(-31.5897 31.5897) rotate(10.305 -32.284 -64.709)" x1="0" y1="0" x2="1" y2="0" spreadMethod="pad"/><linearGradient xlink:href="#c" id="Z" gradientUnits="userSpaceOnUse" gradientTransform="scale(-27.985 27.985) rotate(-72.16 -1.293 10.295)" x1="0" y1="0" x2="1" y2="0" spreadMethod="pad"/><linearGradient xlink:href="#a" id="K" gradientUnits="userSpaceOnUse" gradientTransform="scale(30.0899 -30.0899) rotate(70.684 10.402 3.232)" x1="0" y1="0" x2="1" y2="0" spreadMethod="pad"/><linearGradient xlink:href="#b" id="M" gradientUnits="userSpaceOnUse" gradientTransform="scale(-31.5897 31.5897) rotate(10.305 -32.284 -64.709)" x1="0" y1="0" x2="1" y2="0" spreadMethod="pad"/><linearGradient xlink:href="#c" id="N" gradientUnits="userSpaceOnUse" gradientTransform="scale(-27.985 27.985) rotate(-72.16 -1.293 10.295)" x1="0" y1="0" x2="1" y2="0" spreadMethod="pad"/><linearGradient xlink:href="#c" id="O" gradientUnits="userSpaceOnUse" gradientTransform="scale(-27.985 27.985) rotate(-72.16 -1.293 10.295)" x1="0" y1="0" x2="1" y2="0" spreadMethod="pad"/><linearGradient xlink:href="#f" id="x" gradientUnits="userSpaceOnUse" gradientTransform="scale(-19.984 19.984) rotate(-54.421 .948 16.325)" x1="0" y1="0" x2="1" y2="0" spreadMethod="pad"/><linearGradient xlink:href="#g" id="y" gradientUnits="userSpaceOnUse" gradientTransform="scale(-28.9784 28.9784) rotate(-47.49 1.79 11.874)" x1="0" y1="0" x2="1" y2="0" spreadMethod="pad"/><linearGradient xlink:href="#h" id="z" gradientUnits="userSpaceOnUse" gradientTransform="scale(-9.7539 9.7539) rotate(-85.301 -4.78 19.453)" x1="0" y1="0" x2="1" y2="0" spreadMethod="pad"/><linearGradient xlink:href="#i" id="A" gradientUnits="userSpaceOnUse" gradientTransform="matrix(-11.4068 4.8717 4.8717 11.4068 250.67 123.22)" x1="0" y1="0" x2="1" y2="0" spreadMethod="pad"/><linearGradient xlink:href="#j" id="B" gradientUnits="userSpaceOnUse" gradientTransform="scale(-28.9784 28.9784) rotate(-47.49 1.79 11.874)" x1="0" y1="0" x2="1" y2="0" spreadMethod="pad"/><linearGradient xlink:href="#n" id="F" gradientUnits="userSpaceOnUse" gradientTransform="scale(-28.9784 28.9784) rotate(-47.49 1.79 11.874)" x1="0" y1="0" x2="1" y2="0" spreadMethod="pad"/><linearGradient xlink:href="#o" id="G" gradientUnits="userSpaceOnUse" gradientTransform="scale(-9.7539 9.7539) rotate(-85.301 -4.78 19.453)" x1="0" y1="0" x2="1" y2="0" spreadMethod="pad"/><linearGradient xlink:href="#r" id="ab" gradientUnits="userSpaceOnUse" gradientTransform="scale(35.42 -35.42) rotate(34.958 9.946 9.248)" x1="0" y1="0" x2="1" y2="0" spreadMethod="pad"/><linearGradient xlink:href="#s" id="ac" gradientUnits="userSpaceOnUse" gradientTransform="scale(50.2076 -50.2076) rotate(25.145 8.81 9.76)" x1="0" y1="0" x2="1" y2="0" spreadMethod="pad"/><linearGradient xlink:href="#t" id="ad" gradientUnits="userSpaceOnUse" gradientTransform="scale(60.6432 -60.6432) rotate(87.93 3.905 1.274)" x1="0" y1="0" x2="1" y2="0" spreadMethod="pad"/><linearGradient xlink:href="#u" id="ae" gradientUnits="userSpaceOnUse" gradientTransform="matrix(0 -7.3535 -7.3535 0 303.198 130.111)" x1="0" y1="0" x2="1" y2="0" spreadMethod="pad"/><radialGradient fx="0" fy="0" cx="0" cy="0" r="1" gradientUnits="userSpaceOnUse" gradientTransform="matrix(40.602 0 0 -37.3015 221.836 146.311)" spreadMethod="pad" id="d"><stop style="stop-opacity:1;stop-color:#f37a20" offset="0"/><stop style="stop-opacity:1;stop-color:#f37a20" offset=".001"/><stop style="stop-opacity:1;stop-color:#f4502f" offset=".995"/><stop style="stop-opacity:1;stop-color:#f4502f" offset="1"/></radialGradient><radialGradient fx="0" fy="0" cx="0" cy="0" r="1" gradientUnits="userSpaceOnUse" gradientTransform="matrix(40.602 0 0 -37.3015 221.836 146.311)" spreadMethod="pad" id="e"><stop style="stop-opacity:1;stop-color:#fea23b" offset="0"/><stop style="stop-opacity:1;stop-color:#fea23b" offset=".001"/><stop style="stop-opacity:1;stop-color:#ff774c" offset=".995"/><stop style="stop-opacity:1;stop-color:#ff774c" offset="1"/></radialGradient><radialGradient fx="0" fy="0" cx="0" cy="0" r="1" gradientUnits="userSpaceOnUse" gradientTransform="matrix(20.045 0 0 -19.3236 298.373 214.92)" spreadMethod="pad" id="P"><stop style="stop-opacity:1;stop-color:#ffd4a7" offset="0"/><stop style="stop-opacity:1;stop-color:#ffb96d" offset=".917"/><stop style="stop-opacity:1;stop-color:#ffb96d" offset=".952"/><stop style="stop-opacity:1;stop-color:#ffb96d" offset="1"/></radialGradient><radialGradient fx="0" fy="0" cx="0" cy="0" r="1" gradientUnits="userSpaceOnUse" gradientTransform="matrix(40.602 0 0 -37.3015 221.836 146.311)" spreadMethod="pad" id="k"><stop style="stop-opacity:1;stop-color:#fe9128" offset="0"/><stop style="stop-opacity:1;stop-color:#fe9128" offset=".001"/><stop style="stop-opacity:1;stop-color:#fe9128" offset=".382"/><stop style="stop-opacity:1;stop-color:#ff5e3b" offset=".995"/><stop style="stop-opacity:1;stop-color:#ff5e3b" offset=".997"/><stop style="stop-opacity:1;stop-color:#ff5e3b" offset="1"/></radialGradient><radialGradient fx="0" fy="0" cx="0" cy="0" r="1" gradientUnits="userSpaceOnUse" gradientTransform="matrix(40.602 0 0 -37.3015 221.836 146.311)" spreadMethod="pad" id="l"><stop style="stop-opacity:1;stop-color:#f37a20" offset="0"/><stop style="stop-opacity:1;stop-color:#f37a20" offset=".001"/><stop style="stop-opacity:1;stop-color:#f4502f" offset=".995"/><stop style="stop-opacity:1;stop-color:#f4502f" offset="1"/></radialGradient><radialGradient fx="0" fy="0" cx="0" cy="0" r="1" gradientUnits="userSpaceOnUse" gradientTransform="matrix(40.602 0 0 -37.3015 221.836 146.311)" spreadMethod="pad" id="m"><stop style="stop-opacity:1;stop-color:#f37a20" offset="0"/><stop style="stop-opacity:1;stop-color:#f37a20" offset=".001"/><stop style="stop-opacity:1;stop-color:#f4502f" offset=".995"/><stop style="stop-opacity:1;stop-color:#f4502f" offset="1"/></radialGradient><radialGradient fx="0" fy="0" cx="0" cy="0" r="1" gradientUnits="userSpaceOnUse" gradientTransform="matrix(19.3299 0 0 -19.3299 370.021 142.949)" spreadMethod="pad" id="R"><stop style="stop-opacity:1;stop-color:#ffd4a7" offset="0"/><stop style="stop-opacity:1;stop-color:#ffb96d" offset=".917"/><stop style="stop-opacity:1;stop-color:#ffb96d" offset=".952"/><stop style="stop-opacity:1;stop-color:#ffb96d" offset="1"/></radialGradient><radialGradient fx="0" fy="0" cx="0" cy="0" r="1" gradientUnits="userSpaceOnUse" gradientTransform="matrix(40.602 0 0 -37.3015 221.836 146.311)" spreadMethod="pad" id="p"><stop style="stop-opacity:1;stop-color:#fea23b" offset="0"/><stop style="stop-opacity:1;stop-color:#fea23b" offset=".001"/><stop style="stop-opacity:1;stop-color:#ff774c" offset=".995"/><stop style="stop-opacity:1;stop-color:#ff774c" offset="1"/></radialGradient><radialGradient fx="0" fy="0" cx="0" cy="0" r="1" gradientUnits="userSpaceOnUse" gradientTransform="matrix(40.602 0 0 -37.3015 221.836 146.311)" spreadMethod="pad" id="q"><stop style="stop-opacity:1;stop-color:#f37a20" offset="0"/><stop style="stop-opacity:1;stop-color:#f37a20" offset=".001"/><stop style="stop-opacity:1;stop-color:#f4502f" offset=".995"/><stop style="stop-opacity:1;stop-color:#f4502f" offset="1"/></radialGradient><radialGradient fx="0" fy="0" cx="0" cy="0" r="1" gradientUnits="userSpaceOnUse" gradientTransform="matrix(20.045 0 0 -19.3236 298.373 214.92)" spreadMethod="pad" id="J"><stop style="stop-opacity:1;stop-color:#ffd4a7" offset="0"/><stop style="stop-opacity:1;stop-color:#ffb96d" offset=".917"/><stop style="stop-opacity:1;stop-color:#ffb96d" offset=".952"/><stop style="stop-opacity:1;stop-color:#ffb96d" offset="1"/></radialGradient><radialGradient fx="0" fy="0" cx="0" cy="0" r="1" gradientUnits="userSpaceOnUse" gradientTransform="matrix(19.3299 0 0 -19.3299 370.021 142.949)" spreadMethod="pad" id="L"><stop style="stop-opacity:1;stop-color:#ffd4a7" offset="0"/><stop style="stop-opacity:1;stop-color:#ffb96d" offset=".917"/><stop style="stop-opacity:1;stop-color:#ffb96d" offset=".952"/><stop style="stop-opacity:1;stop-color:#ffb96d" offset="1"/></radialGradient><radialGradient xlink:href="#d" id="v" gradientUnits="userSpaceOnUse" gradientTransform="matrix(40.602 0 0 -37.3015 221.836 146.311)" cx="0" cy="0" fx="0" fy="0" r="1" spreadMethod="pad"/><radialGradient xlink:href="#e" id="w" gradientUnits="userSpaceOnUse" gradientTransform="matrix(40.602 0 0 -37.3015 221.836 146.311)" cx="0" cy="0" fx="0" fy="0" r="1" spreadMethod="pad"/><radialGradient xlink:href="#k" id="C" gradientUnits="userSpaceOnUse" gradientTransform="matrix(40.602 0 0 -37.3015 221.836 146.311)" cx="0" cy="0" fx="0" fy="0" r="1" spreadMethod="pad"/><radialGradient xlink:href="#l" id="D" gradientUnits="userSpaceOnUse" gradientTransform="matrix(40.602 0 0 -37.3015 221.836 146.311)" cx="0" cy="0" fx="0" fy="0" r="1" spreadMethod="pad"/><radialGradient xlink:href="#m" id="E" gradientUnits="userSpaceOnUse" gradientTransform="matrix(40.602 0 0 -37.3015 221.836 146.311)" cx="0" cy="0" fx="0" fy="0" r="1" spreadMethod="pad"/><radialGradient xlink:href="#p" id="H" gradientUnits="userSpaceOnUse" gradientTransform="matrix(40.602 0 0 -37.3015 221.836 146.311)" cx="0" cy="0" fx="0" fy="0" r="1" spreadMethod="pad"/><radialGradient xlink:href="#q" id="I" gradientUnits="userSpaceOnUse" gradientTransform="matrix(40.602 0 0 -37.3015 221.836 146.311)" cx="0" cy="0" fx="0" fy="0" r="1" spreadMethod="pad"/><clipPath clipPathUnits="userSpaceOnUse" id="T"><path d="M281.517 167.309c-.232.01-.459.042-.681.094-.273.503-.536 1.02-.792 1.546l-.057 1.923c.004.306.014.622.031.946.247-.467.571-.848.971-1.114a2.379 2.379 0 0 1 1.011-.382 22.924 22.924 0 0 1-.483-3.013m7.121 5.441c-.251 1.032-.597 1.876-1.012 2.484 1.332 3.247 1.048 6.668-.724 7.847a2.398 2.398 0 0 1-1.353.405c-1.102 0-2.326-.68-3.399-1.87a28.385 28.385 0 0 0 2.467 4.91c.121.05.241.095.362.135.503.169 1 .256 1.482.256.718 0 1.4-.193 2.013-.602 2.801-1.863 3.103-7.495.675-12.578a16.91 16.91 0 0 0-.511-.987"/></clipPath><clipPath clipPathUnits="userSpaceOnUse" id="V"><path d="M296.712 165c-.2 1.19.025 5.275 3.35 17.532 3.089 11.388-5.935 15.866-13.661 6.465-4.699-5.719-6.347-13.174-6.414-18.125l.641-21.401L296.712 165"/></clipPath><clipPath clipPathUnits="userSpaceOnUse" id="W"><path d="M281.694 167.305c-.059 0-.118.001-.177.004.098 1.046.263 2.062.483 3.013a2.44 2.44 0 0 1 .343-.023c1.72 0 3.738 1.655 5.013 4.325.096.202.187.405.27.61.415-.608.761-1.452 1.012-2.484-1.896-3.387-4.606-5.445-6.944-5.445"/></clipPath><clipPath clipPathUnits="userSpaceOnUse" id="Y"><path d="M296.712 165c-.2 1.19.025 5.275 3.35 17.532 3.089 11.388-5.935 15.866-13.661 6.465-4.699-5.719-6.347-13.174-6.414-18.125l.641-21.401L296.712 165"/></clipPath></defs><g style="display:inline;opacity:.75533981"><path d="M74.723 7.016c-.154-.1-.092-.221-.455-1.321-.106-.319-.159-.48-.234-.654a4.147 4.147 0 0 0-.905-1.305c-.324.097-2.95.833-5.057-.774-2.23-1.702-2.619-5.07-1.457-6.925A3.408 3.408 0 0 1 67.753-5.1c1.413-.843 2.465.255 4.055-.182 1.657-.457 1.384-1.848 3.416-2.87.397-.2 2.285-1.15 3.963-.41 1.97.867 2.583 3.589 2.415 5.42-.32 3.466-3.574 5.221-3.872 5.376a6.32 6.32 0 0 1-.32 2.505c-.098.287-.182.557-.377.872-.619 1-1.838 1.713-2.31 1.406" style="display:inline;fill:#dadada;fill-opacity:1;fill-rule:nonzero;stroke:none;stroke-width:.352778" transform="translate(-5.584 55.093)"/><path d="M79.187-8.564c-1.678-.739-3.566.21-3.963.41-2.032 1.023-1.76 2.414-3.416 2.87-1.59.438-2.642-.66-4.055.183a3.408 3.408 0 0 0-1.138 1.138c-.42.67-.637 1.538-.638 2.453a4.885 4.885 0 0 1 1.776-2.088c1.575-1.022 3.219-.755 3.6-.684-.067.13-.131.282-.183.456a2.835 2.835 0 0 0-.09 1.185c.235-.305 1.008-1.216 2.368-1.55a4.283 4.283 0 0 1 2.186.046 1.443 1.443 0 0 0-.364-.82c-.455-.494-1.095-.461-1.185-.455.22-.24 1.604-1.702 3.827-1.686 1.905.014 3.15 1.105 3.442 1.374-.343-1.21-1.028-2.33-2.167-2.832" style="display:inline;fill:#fff;fill-opacity:1;fill-rule:nonzero;stroke:none;stroke-width:.352778" transform="translate(-5.584 55.093)"/><path d="M81.602-3.142c.018-.201.027-.412.026-.63-.192.622-1.202 3.681-4.08 4.82-.683.27-1.34.38-1.914.41a3.378 3.378 0 0 0 .775-2.323c-.171.258-1.25 1.83-3.143 2.005A3.88 3.88 0 0 1 71.58.912a2.724 2.724 0 0 0 1.777 1.366 6.353 6.353 0 0 1-2.46.638c-1.945.097-3.379-.748-3.91-1.101a5.042 5.042 0 0 0 1.085 1.147c2.107 1.607 4.733.87 5.057.774.501.501.761.969.905 1.305.075.174.128.335.234.654.363 1.1.301 1.22.455 1.321.472.307 1.691-.406 2.31-1.406.195-.315.28-.585.378-.872a6.32 6.32 0 0 0 .319-2.505c.298-.155 3.553-1.91 3.872-5.375" style="display:inline;fill:#c2c2c2;fill-opacity:1;fill-rule:nonzero;stroke:none;stroke-width:.352778" transform="translate(-5.584 55.093)"/></g><g style="display:inline;opacity:.86019417"><path d="M72.821 33.083c-.895.614-2.803 1.723-5.373 1.749-1.24.012-3.179.032-4.564-1.237-1.638-1.5-.855-3.296-2.388-4.18-1.201-.691-2.107.167-4.008-.468-1.217-.407-2.059-1.165-2.56-1.706a7.67 7.67 0 0 1-4.307 0c.128 1.83-.562 2.772-.81 3.07-1.483 1.784-5.048 2.008-8.4-.128-4.416 2.544-9.686 1.027-11.644-2.516-1.452-2.63-.986-6.211 1.195-8.913-.567-.41-3.541-2.648-3.881-6.44-.395-4.407 2.989-8.48 6.994-9.467 2.565-.631 4.775.153 5.714.555.182-.708.974-3.452 3.626-5.075 2.793-1.71 6.532-1.493 9.51.554C54.3-4.692 59.22-5.32 62.201-2.825c2.802 2.346 3.228 6.894.597 9.937 1.956 1.87 2.659 4.588 1.792 6.866-.828 2.172-2.765 3.111-3.242 3.326v3.198c.617.327 1.634.963 2.431 2.09 2.362 3.342.067 7.155 1.877 9.382.774.954 2.54 1.91 7.164 1.11" style="fill:#dadada;fill-opacity:1;fill-rule:nonzero;stroke:none;stroke-width:.352778" transform="matrix(.92306 .26352 -.26838 .94006 -1.267 25.095)"/><path d="M27.008 15.387c1.027 1.932 2.563 3.084 2.954 3.367a8.022 8.022 0 0 1 1.535-1.407 5.511 5.511 0 0 1-2.367-.405 5.524 5.524 0 0 1-2.122-1.555M63.076 32.21c-.312-.735-.316-1.987-1.407-3.242-.427-.492-.658-.565-.938-1.066-.675-1.207-.349-2.595-.256-2.943.324-1.21.931-1.417 1.408-3.07.113-.395.177-.725.213-.937a7.802 7.802 0 0 0-.747-.45v-3.198c.477-.215 2.414-1.154 3.242-3.326.867-2.278.164-4.995-1.792-6.866a7.183 7.183 0 0 0 1.727-4.061c-.165.431-1.094 2.743-3.496 3.613a5.513 5.513 0 0 1-2.346.299 3.56 3.56 0 0 0 1.023.554c.979.336 1.844.149 2.218.042 2 2.08 2.202 5.123.725 7.037-1.624 2.104-4.51 1.853-4.691 1.834.107 2.688-1.415 5.068-3.667 5.885-2.395.869-4.56-.412-4.862-.597-.875 2.053-2.845 3.396-4.99 3.412-2.836.02-4.442-2.293-4.563-2.474-.111.29-1.407 3.511-4.862 4.35-2.578.626-5.336-.323-7.079-2.432.016 1.498.488 2.472.831 3.093 1.958 3.543 7.228 5.06 11.643 2.516 3.353 2.136 6.918 1.912 8.401.128.248-.298.938-1.24.81-3.07a7.67 7.67 0 0 0 4.308 0c.5.541 1.342 1.299 2.559 1.706 1.9.635 2.807-.223 4.008.469 1.533.883.75 2.678 2.388 4.18 1.385 1.268 3.324 1.248 4.564 1.236a9.188 9.188 0 0 0 2.37-.338c-4.829-.166-6.31-1.271-6.742-2.285" style="fill:#c2c2c2;fill-opacity:1;fill-rule:nonzero;stroke:none;stroke-width:.352778" transform="matrix(.92306 .26352 -.26838 .94006 -1.267 25.095)"/><path d="M72.787 33.09c-4.6.79-6.358-.164-7.13-1.116-1.319-1.623-.459-4.087-.808-6.598l-.027.159c-.729 3.279-.457 6.012.557 6.93.31.28.683.512.683.512 1.009.626 1.982.715 2.644.767 1.755.14 3.25-.327 4.081-.655" style="fill:#fff;fill-opacity:1;fill-rule:nonzero;stroke:none;stroke-width:.352778" transform="matrix(.92306 .26352 -.26838 .94006 -1.267 25.095)"/><path d="M45.205 11.45c.03.413.022 1.142-.332 1.933a4.246 4.246 0 0 1-.449.76 4.876 4.876 0 0 1-1.678 1.423c.398-.158 1.634-.589 3.091-.146.937.285 1.56.809 1.879 1.12a2.89 2.89 0 0 1-.175-1.305c.117-1.144.903-1.836 1.1-2a2.798 2.798 0 0 1-1.477.024c-1.344-.355-1.89-1.638-1.959-1.81" style="fill:#c2c2c2;fill-opacity:1;fill-rule:nonzero;stroke:none;stroke-width:.352778" transform="matrix(.92306 .26352 -.26838 .94006 -1.267 25.095)"/><path d="M46.828 6.963c.101-.14.96-1.28 2.474-1.322 1.752-.05 2.724 1.417 2.772 1.492.078-.144.65-1.163 1.876-1.407 1.498-.298 2.552.84 2.601.895-.178-1.125-1.048-2.004-2.132-2.174-.964-.152-1.946.281-2.516 1.108-.11-.144-.93-1.19-2.217-1.194-1.302-.004-2.546 1.058-2.858 2.602" style="fill:#fff;fill-opacity:1;fill-rule:nonzero;stroke:none;stroke-width:.352778" transform="matrix(.92306 .26352 -.26838 .94006 -1.267 25.095)"/><path d="M64.018-.333a6.476 6.476 0 0 0-1.816-2.492C59.221-5.32 54.3-4.692 51.924-1.119c-2.977-2.047-6.716-2.265-9.51-.554-2.65 1.623-3.443 4.367-3.625 5.075-.94-.402-3.15-1.186-5.714-.555-4.005.986-7.389 5.06-6.994 9.468a7.89 7.89 0 0 0 .545 2.252c.019-.633.23-5.088 3.826-7.775 3.447-2.575 8.573-2.458 12.496.469a8.384 8.384 0 0 0-3.242-3.454c.406-1.764 1.25-2.76 1.749-3.241 2.28-2.208 6.371-2.432 10.192-.47a6.654 6.654 0 0 0 0 2.175c2.11-3.368 5.564-5.19 8.7-4.605 1.726.322 2.96 1.3 3.67 2.001" style="fill:#fff;fill-opacity:1;fill-rule:nonzero;stroke:none;stroke-width:.352778" transform="matrix(.92306 .26352 -.26838 .94006 -1.267 25.095)"/></g><g style="opacity:.56699029"><path d="M16.157 41.202a1.262 1.262 0 0 0-.204-.401 2.172 2.172 0 0 0-.084-.817c-.112-.375-.326-.75-.621-.978-.982-.756-1.858.432-1.621 1.504.161.733.78 1.195 1.337 1.244.269.489.922.642 1.154.232.117-.206.123-.504.039-.784" style="fill:#dadada;fill-opacity:1;fill-rule:nonzero;stroke:none;stroke-width:.352778" transform="translate(-5.26 10.343)"/></g><g style="opacity:.78834951"><path d="M58.225 20.9a4.843 4.843 0 0 0-2.236-.508c-1.92.042-3.662 1.291-4.32 2.744-1.03 2.28.303 5.742 3.66 7.267-.04 1.94 1.398 3.612 3.303 3.863 1.874.246 3.671-.953 4.167-2.795.596.196 2.325.677 3.913-.153 2.644-1.382 3.696-5.767 1.576-8.182-1.252-1.425-3.402-1.93-5.489-1.423-.019-.06-.494-1.46-1.93-1.779a2.643 2.643 0 0 0-2.644.966" style="fill:#dadada;fill-opacity:1;fill-rule:nonzero;stroke:none;stroke-width:.352778"/><path d="M51.394 24.033c.34-.485 1.288-1.69 2.97-2.218 1.835-.577 3.483.014 4.56.542.86.423 1.28.55 1.623.553.463.005.806-.113.923-.15 1.046-.341 3.328-.316 4.937.58 2.23 1.24 2.759 3.92 2.848 4.417.057-.204.724-2.696-.967-4.621-1.252-1.425-3.402-1.93-5.489-1.423-.019-.06-.494-1.46-1.93-1.779a2.643 2.643 0 0 0-2.644.966 4.843 4.843 0 0 0-2.236-.508c-1.92.042-3.662 1.291-4.32 2.744-.127.283-.219.584-.275.897M56.497 28.066c.768-1.027 2.032-1.542 3.253-1.322 1.398.253 2.5 1.426 2.693 2.897-.103-.19-1.122-1.989-3.201-2.236-1.383-.164-2.425.454-2.745.66" style="fill:#fff;fill-opacity:1;fill-rule:nonzero;stroke:none;stroke-width:.352778"/><path d="M22.883 30.744c1.868-1.815 2.174-4.323 1.095-5.751-.798-1.058-2.147-1.248-2.582-1.291-.153-1.467-.973-2.735-2.191-3.248-2.264-.954-4.395 1.33-4.5 1.447-1.54 1.702-1.226 3.904-1.174 4.226-.166.185-1.324 1.52-1.057 3.444.26 1.87 1.664 2.831 1.879 2.974-.595 1.465-.173 3.12.978 4.03 1.342 1.06 3.42.905 4.695-.47.091.046 1.644.795 2.935-.039 1.254-.81 1.303-2.496 1.056-3.482-.24-.962-.838-1.574-1.134-1.84" style="fill:#dadada;fill-opacity:1;fill-rule:nonzero;stroke:none;stroke-width:.352778"/><path d="M20.026 36.105c.091.046 1.644.795 2.935-.039 1.254-.81 1.303-2.496 1.056-3.482a3.575 3.575 0 0 0-.728-1.417c.03.168.201 1.231-.524 2.12-.502.617-1.401 1.11-2.348.9-.677-.148-1.095-.595-1.252-.782-.053.096-.403.697-1.095.822-.725.132-1.571-.305-1.761-1.057-.19-.749.388-1.364.43-1.408-.203.066-1.391.43-2.621-.235-1.307-.706-1.626-2.013-1.67-2.21.006.084.015.168.026.254.26 1.87 1.664 2.831 1.879 2.974-.595 1.465-.173 3.12.978 4.03 1.342 1.06 3.42.905 4.695-.47M18.918 28.926c.062-.145.084-.306.162-.443s.242-.248.39-.192c.102.04.162.148.187.256.037.162.044.293.041.327-.031.507.82 1.04.702 1.245-.054.096-.29.068-.372.058-.161-.02-.2-.074-.367-.134a1.492 1.492 0 0 0-.856-.046c-.102.025-.204.06-.309.063-.105.002-.22-.039-.27-.131-.117-.212.133-.409.276-.525.167-.136.33-.274.416-.478" style="fill:#c2c2c2;fill-opacity:1;fill-rule:nonzero;stroke:none;stroke-width:.352778"/><path d="M23.978 24.993c-.798-1.058-2.147-1.248-2.582-1.291-.153-1.467-.973-2.735-2.191-3.248-2.264-.954-4.395 1.33-4.5 1.447-1.54 1.702-1.226 3.904-1.174 4.226a4.545 4.545 0 0 0-.95 1.777 4.553 4.553 0 0 1 1.537-1.62c-.009-2.151 1.104-3.875 2.582-4.265.846-.223 2.328-.146 2.974.9.455.736.265 1.58.196 1.839.348-.077 1.945-.388 3.404.587a4.19 4.19 0 0 1 1.319 1.436 3.12 3.12 0 0 0-.615-1.788" style="fill:#fff;fill-opacity:1;fill-rule:nonzero;stroke:none;stroke-width:.352778"/><path d="M13.833 26.48c.314-.129.871-.307 1.576-.274a3.768 3.768 0 0 1 1.956.665 2.876 2.876 0 0 0-1.643-1.057 2.863 2.863 0 0 0-1.8.196l-.195.274.106.195" style="fill:#fff;fill-opacity:1;fill-rule:nonzero;stroke:none;stroke-width:.352778"/></g></svg>